<svg xmlns="http://www.w3.org/2000/svg" viewBox="0 0 512 512">
  <defs>
    <radialGradient id="clay" cx="35%" cy="25%" r="90%">
      <stop offset="0%" stop-color="#d98a33"/>
      <stop offset="60%" stop-color="#c9711f"/>
      <stop offset="100%" stop-color="#a5541a"/>
    </radialGradient>
  </defs>
  <rect width="512" height="512" rx="110" fill="url(#clay)"/>
  <rect x="18" y="18" width="476" height="476" rx="92" fill="none" stroke="#17100a" stroke-width="16"/>
  <!-- meander band top and bottom -->
  <g fill="none" stroke="#17100a" stroke-width="10">
    <path d="M96 88 V56 H160 V88 H128 V72 M192 88 V56 H256 V88 H224 V72 M288 88 V56 H352 V88 H320 V72 M384 88 V56 H416"/>
    <path d="M96 456 V424 H160 V456 H128 V440 M192 456 V424 H256 V456 H224 V440 M288 456 V424 H352 V456 H320 V440 M384 456 V424 H416"/>
  </g>
  <!-- black-figure lightning bolt -->
  <path d="M292 120 L192 288 L250 288 L218 400 L326 240 L266 240 L322 120 Z"
        fill="#17100a" stroke="#ecd9a8" stroke-width="5" stroke-linejoin="round"/>
</svg>
