<svg xmlns="http://www.w3.org/2000/svg" viewBox="0 0 512 512">
  <defs>
    <radialGradient id="bg" cx="50%" cy="35%" r="75%">
      <stop offset="0%" stop-color="#1d2747"/>
      <stop offset="100%" stop-color="#0b0f1d"/>
    </radialGradient>
    <linearGradient id="gold" x1="0" y1="0" x2="0" y2="1">
      <stop offset="0%" stop-color="#f0c75e"/>
      <stop offset="100%" stop-color="#b8912a"/>
    </linearGradient>
  </defs>
  <rect width="512" height="512" rx="110" fill="url(#bg)"/>
  <!-- laurel wreath -->
  <g fill="none" stroke="url(#gold)" stroke-width="14" stroke-linecap="round">
    <path d="M136 150 C 90 220, 90 300, 150 370"/>
    <path d="M376 150 C 422 220, 422 300, 362 370"/>
  </g>
  <g fill="url(#gold)">
    <ellipse cx="118" cy="180" rx="30" ry="13" transform="rotate(-55 118 180)"/>
    <ellipse cx="102" cy="238" rx="30" ry="13" transform="rotate(-80 102 238)"/>
    <ellipse cx="104" cy="298" rx="30" ry="13" transform="rotate(-100 104 298)"/>
    <ellipse cx="126" cy="352" rx="30" ry="13" transform="rotate(-125 126 352)"/>
    <ellipse cx="394" cy="180" rx="30" ry="13" transform="rotate(55 394 180)"/>
    <ellipse cx="410" cy="238" rx="30" ry="13" transform="rotate(80 410 238)"/>
    <ellipse cx="408" cy="298" rx="30" ry="13" transform="rotate(100 408 298)"/>
    <ellipse cx="386" cy="352" rx="30" ry="13" transform="rotate(125 386 352)"/>
  </g>
  <!-- lightning bolt -->
  <path d="M290 96 L196 268 L252 268 L222 416 L330 226 L270 226 L322 96 Z"
        fill="url(#gold)" stroke="#f6dd9a" stroke-width="6" stroke-linejoin="round"/>
</svg>
